<svg version="1.1" id="Layer_1" xmlns="http://www.w3.org/2000/svg" xmlns:xlink="http://www.w3.org/1999/xlink" x="0px" y="0px"
	 width="100%" viewBox="0 0 534 300" enable-background="new 0 0 534 300" xml:space="preserve">
<path fill="#FEFEFE" opacity="1.000000" stroke="none" 
	d="
M386.000000,301.000000 
	C257.333374,301.000000 129.166748,301.000000 1.000086,301.000000 
	C1.000057,201.000061 1.000057,101.000137 1.000029,1.000153 
	C178.999878,1.000102 356.999756,1.000102 534.999756,1.000051 
	C534.999817,100.999847 534.999817,200.999695 534.999878,300.999756 
	C485.500000,301.000000 436.000000,301.000000 386.000000,301.000000 
M360.144592,27.745071 
	C352.491974,30.962358 344.818359,34.130928 337.194244,37.414429 
	C332.285278,39.528591 332.202759,40.460419 336.353058,44.142796 
	C339.964264,47.346870 343.418793,50.767719 347.280884,53.637482 
	C351.120544,56.490566 352.428406,59.793648 352.387512,64.629066 
	C352.143799,93.456078 352.266785,122.286179 352.267090,151.115250 
	C352.267426,180.944168 352.207336,210.773392 352.346619,240.601654 
	C352.363831,244.289658 351.279846,246.363297 347.831665,247.845215 
	C343.414825,249.743454 339.307373,252.349503 334.995819,254.509308 
	C332.291046,255.864182 331.425049,257.669434 332.679718,260.349945 
	C333.196198,260.528595 333.505188,260.728516 333.814606,260.729218 
	C354.976318,260.776825 376.138184,260.839355 397.299469,260.755249 
	C398.423248,260.750793 399.542023,259.496094 400.663147,258.823425 
	C399.859344,257.551025 399.350067,255.661896 398.200745,255.113098 
	C393.254944,252.751404 388.197754,250.566406 383.030823,248.742966 
	C379.167786,247.379654 377.794342,245.267487 377.823090,241.055786 
	C378.018677,212.394699 378.021729,183.730988 377.828033,155.069870 
	C377.796539,150.413025 379.454590,147.658615 383.472565,145.674149 
	C393.831024,140.558029 404.775085,137.890945 416.272705,138.375565 
	C433.559021,139.104156 444.911224,149.831924 445.101166,165.962662 
	C445.401428,191.455338 445.259705,216.954910 445.018250,242.448837 
	C445.000458,244.327377 443.091583,246.999451 441.341309,247.896210 
	C436.327301,250.465103 430.857391,252.131195 425.757751,254.554230 
	C424.325073,255.234940 423.551819,257.303467 422.476105,258.735413 
	C423.906342,259.439453 425.332611,260.747223 426.767426,260.756653 
	C446.930206,260.889465 467.094177,260.851898 487.257812,260.827240 
	C488.386871,260.825867 489.515564,260.576599 492.455627,260.227875 
	C490.452148,257.668121 489.470062,255.472900 487.778351,254.440674 
	C483.816589,252.023300 479.617828,249.910660 475.318420,248.156525 
	C471.801056,246.721451 470.836578,244.522964 470.861145,240.879395 
	C471.009460,218.883652 470.935059,196.886414 470.932617,174.889664 
	C470.931702,166.890869 471.084320,158.888077 470.886383,150.894073 
	C470.442627,132.974701 460.031036,120.627258 442.561768,116.463821 
	C421.986938,111.560257 404.062134,116.659142 388.190002,130.156952 
	C385.144501,132.746857 382.119476,135.360794 377.867615,139.007889 
	C377.867615,98.857040 377.867615,60.346939 377.867615,20.738789 
	C371.529785,23.236326 366.188538,25.341139 360.144592,27.745071 
M67.629967,252.325195 
	C66.880547,252.686966 66.119522,253.026733 65.383865,253.414612 
	C63.073265,254.632919 59.709133,255.595596 61.096737,258.920013 
	C61.616951,260.166351 64.926720,260.768311 66.969498,260.779480 
	C89.956062,260.905212 112.943787,260.899261 135.930359,260.773529 
	C137.604126,260.764404 139.271317,259.550171 140.941559,258.896240 
	C139.842621,257.266571 139.110977,254.983261 137.579788,254.122894 
	C131.640381,250.785507 125.314377,248.128174 119.429955,244.705872 
	C117.713371,243.707550 115.960648,241.011749 115.954285,239.088318 
	C115.768723,182.953400 115.825439,126.817711 115.743568,70.682297 
	C115.738731,67.362671 116.962082,65.559998 119.903633,64.176804 
	C125.770615,61.417995 131.613937,58.547207 137.171158,55.227386 
	C138.929337,54.177082 139.746643,51.551857 140.994522,49.647373 
	C139.188034,48.895782 137.385666,47.501709 135.574432,47.490078 
	C112.588142,47.342484 89.600174,47.336601 66.614037,47.496433 
	C64.660164,47.510021 62.716328,48.967270 60.767822,49.753857 
	C62.059658,51.632771 62.937084,54.226757 64.719254,55.259590 
	C70.605797,58.671066 76.954674,61.287392 82.822861,64.726349 
	C84.537041,65.730911 86.251923,68.458778 86.258202,70.402275 
	C86.439987,126.703735 86.435524,183.005981 86.261414,239.307495 
	C86.255928,241.080658 84.545830,243.524933 82.932739,244.488983 
	C78.234283,247.296967 73.181244,249.511627 67.629967,252.325195 
M300.933411,232.291473 
	C301.265350,230.719620 301.597290,229.147766 301.956207,227.448044 
	C300.761719,227.391632 300.383636,227.260544 300.118408,227.379990 
	C298.606049,228.061050 297.122131,228.805054 295.625732,229.521835 
	C278.537506,237.707306 260.964172,242.192902 241.980469,236.983582 
	C227.762131,233.081970 216.610809,225.352570 210.346176,211.692749 
	C203.929779,197.702026 203.484604,183.137741 206.809967,168.267349 
	C212.091873,144.647629 232.769302,128.106216 256.887909,128.247070 
	C260.660004,128.269104 263.363312,129.489975 265.742035,132.630905 
	C271.943420,140.819382 278.524719,148.720154 285.580750,157.516373 
	C290.698578,152.933823 295.721893,149.096146 299.894897,144.488388 
	C303.174194,140.867462 303.508514,135.793762 300.135132,132.107956 
	C296.285889,127.902298 291.934021,123.640404 286.939911,121.085060 
	C260.342438,107.475922 220.618362,116.230797 200.482040,139.255524 
	C187.474030,154.129425 180.473373,171.215012 179.429977,190.880081 
	C177.623322,224.930878 195.557220,255.025330 230.792664,261.700928 
	C258.521973,266.954437 285.530853,256.387299 300.933411,232.291473 
z"/>
<path fill="#070707" opacity="1.000000" stroke="none" 
	d="
M360.495941,27.595512 
	C366.188538,25.341139 371.529785,23.236326 377.867615,20.738789 
	C377.867615,60.346939 377.867615,98.857040 377.867615,139.007889 
	C382.119476,135.360794 385.144501,132.746857 388.190002,130.156952 
	C404.062134,116.659142 421.986938,111.560257 442.561768,116.463821 
	C460.031036,120.627258 470.442627,132.974701 470.886383,150.894073 
	C471.084320,158.888077 470.931702,166.890869 470.932617,174.889664 
	C470.935059,196.886414 471.009460,218.883652 470.861145,240.879395 
	C470.836578,244.522964 471.801056,246.721451 475.318420,248.156525 
	C479.617828,249.910660 483.816589,252.023300 487.778351,254.440674 
	C489.470062,255.472900 490.452148,257.668121 492.455627,260.227875 
	C489.515564,260.576599 488.386871,260.825867 487.257812,260.827240 
	C467.094177,260.851898 446.930206,260.889465 426.767426,260.756653 
	C425.332611,260.747223 423.906342,259.439453 422.476105,258.735413 
	C423.551819,257.303467 424.325073,255.234940 425.757751,254.554230 
	C430.857391,252.131195 436.327301,250.465103 441.341309,247.896210 
	C443.091583,246.999451 445.000458,244.327377 445.018250,242.448837 
	C445.259705,216.954910 445.401428,191.455338 445.101166,165.962662 
	C444.911224,149.831924 433.559021,139.104156 416.272705,138.375565 
	C404.775085,137.890945 393.831024,140.558029 383.472565,145.674149 
	C379.454590,147.658615 377.796539,150.413025 377.828033,155.069870 
	C378.021729,183.730988 378.018677,212.394699 377.823090,241.055786 
	C377.794342,245.267487 379.167786,247.379654 383.030823,248.742966 
	C388.197754,250.566406 393.254944,252.751404 398.200745,255.113098 
	C399.350067,255.661896 399.859344,257.551025 400.663147,258.823425 
	C399.542023,259.496094 398.423248,260.750793 397.299469,260.755249 
	C376.138184,260.839355 354.976318,260.776825 333.814606,260.729218 
	C333.505188,260.728516 333.196198,260.528595 332.679718,260.349945 
	C331.425049,257.669434 332.291046,255.864182 334.995819,254.509308 
	C339.307373,252.349503 343.414825,249.743454 347.831665,247.845215 
	C351.279846,246.363297 352.363831,244.289658 352.346619,240.601654 
	C352.207336,210.773392 352.267426,180.944168 352.267090,151.115250 
	C352.266785,122.286179 352.143799,93.456078 352.387512,64.629066 
	C352.428406,59.793648 351.120544,56.490566 347.280884,53.637482 
	C343.418793,50.767719 339.964264,47.346870 336.353058,44.142796 
	C332.202759,40.460419 332.285278,39.528591 337.194244,37.414429 
	C344.818359,34.130928 352.491974,30.962358 360.495941,27.595512 
z"/>
<path fill="#090909" opacity="1.000000" stroke="none" 
	d="
M67.948608,252.142059 
	C73.181244,249.511627 78.234283,247.296967 82.932739,244.488983 
	C84.545830,243.524933 86.255928,241.080658 86.261414,239.307495 
	C86.435524,183.005981 86.439987,126.703735 86.258202,70.402275 
	C86.251923,68.458778 84.537041,65.730911 82.822861,64.726349 
	C76.954674,61.287392 70.605797,58.671066 64.719254,55.259590 
	C62.937084,54.226757 62.059658,51.632771 60.767822,49.753857 
	C62.716328,48.967270 64.660164,47.510021 66.614037,47.496433 
	C89.600174,47.336601 112.588142,47.342484 135.574432,47.490078 
	C137.385666,47.501709 139.188034,48.895782 140.994522,49.647377 
	C139.746643,51.551857 138.929337,54.177082 137.171158,55.227386 
	C131.613937,58.547207 125.770615,61.417995 119.903633,64.176804 
	C116.962082,65.559998 115.738731,67.362671 115.743568,70.682297 
	C115.825439,126.817711 115.768723,182.953400 115.954285,239.088318 
	C115.960648,241.011749 117.713371,243.707550 119.429955,244.705872 
	C125.314377,248.128174 131.640381,250.785507 137.579788,254.122894 
	C139.110977,254.983261 139.842621,257.266571 140.941559,258.896240 
	C139.271317,259.550171 137.604126,260.764404 135.930359,260.773529 
	C112.943787,260.899261 89.956062,260.905212 66.969498,260.779480 
	C64.926720,260.768311 61.616951,260.166351 61.096737,258.920013 
	C59.709133,255.595596 63.073265,254.632919 65.383865,253.414612 
	C66.119522,253.026733 66.880547,252.686966 67.948608,252.142059 
z"/>
<path fill="#070707" opacity="1.000000" stroke="none" 
	d="
M300.729309,232.604492 
	C285.530853,256.387299 258.521973,266.954437 230.792664,261.700928 
	C195.557220,255.025330 177.623322,224.930878 179.429977,190.880081 
	C180.473373,171.215012 187.474030,154.129425 200.482040,139.255524 
	C220.618362,116.230797 260.342438,107.475922 286.939911,121.085060 
	C291.934021,123.640404 296.285889,127.902298 300.135132,132.107956 
	C303.508514,135.793762 303.174194,140.867462 299.894897,144.488388 
	C295.721893,149.096146 290.698578,152.933823 285.580750,157.516373 
	C278.524719,148.720154 271.943420,140.819382 265.742035,132.630905 
	C263.363312,129.489975 260.660004,128.269104 256.887909,128.247070 
	C232.769302,128.106216 212.091873,144.647629 206.809967,168.267349 
	C203.484604,183.137741 203.929779,197.702026 210.346176,211.692749 
	C216.610809,225.352570 227.762131,233.081970 241.980469,236.983582 
	C260.964172,242.192902 278.537506,237.707306 295.625732,229.521835 
	C297.122131,228.805054 298.606049,228.061050 300.118408,227.379990 
	C300.383636,227.260544 300.761719,227.391632 301.956207,227.448044 
	C301.597290,229.147766 301.265350,230.719620 300.729309,232.604492 
z"/>
</svg>